<svg xmlns="http://www.w3.org/2000/svg" viewBox="0 0 560.04 248.014"><path d="M280.013 17.014c25.744-1.418 40.577 10.582 44.5 36 .667 8.333.667 16.667 0 25-3.867 27.869-19.7 39.702-47.5 35.5-11.237-2.901-19.07-9.735-23.5-20.5-6.802-20.434-5.802-40.434 3-60 5.808-8.474 13.641-13.808 23.5-16Zm1 17c15.779-1.396 23.946 5.937 24.5 22a91.125 91.125 0 0 1-2 30c-4.223 10.361-11.723 14.195-22.5 11.5-5.479-2.431-8.979-6.597-10.5-12.5-3.333-12.667-3.333-25.333 0-38 1.625-5.953 5.125-10.286 10.5-13Z" style="fill:#327bbb;fill-rule:evenodd"/><path d="M85.013 37.014a1076.763 1076.763 0 0 0 39 39c2.695 3.026 5.362 6.026 8 9 5.375 7.329 5.209 14.662-.5 22a247.646 247.646 0 0 1-27.5 25.5c-4.198 2.161-8.198 1.828-12-1a76.332 76.332 0 0 1-8-6.5c-2.685-3.683-6.018-6.683-10-9a802.492 802.492 0 0 0-41.5-41 19.51 19.51 0 0 1-3.5-7c-.577-4.369.257-8.369 2.5-12l29.5-27.5c3.202-1.483 6.536-1.817 10-1a67.952 67.952 0 0 1 14 9.5Z" style="fill:#b3eaf6;fill-rule:evenodd"/><path d="M419.013 29.014a2.428 2.428 0 0 1 2 .5c-1.894 1.079-2.227 2.413-1 4-1.833.5-3 1.667-3.5 3.5-.614 2.379-.947 4.712-1 7 4.784-.643 9.617-1.309 14.5-2 3.19-7.007 8.69-10.674 16.5-11 6.13.479 10.964 3.145 14.5 8-.124.607-.457.94-1 1-3.134-4.818-7.634-7.151-13.5-7-7.989-.105-13.156 3.562-15.5 11-6 1.333-12 1.333-18 0 .835-5.514 2.835-10.514 6-15Z" style="fill:#3469b0;fill-rule:evenodd;isolation:isolate;opacity:.859"/><path d="M150.013 4.014c12.858 13.368 26.691 27.368 41.5 42a32.473 32.473 0 0 1 4 10c.667 12 .667 24 0 36a176.05 176.05 0 0 0-2.5-8c-.406 1.057-.406 2.391 0 4a14.828 14.828 0 0 0-6.5 2c-2.503-5.205-4.003-5.205-4.5 0a4.457 4.457 0 0 1-1.5-2 21.438 21.438 0 0 0 0 5l-1-1a6.978 6.978 0 0 1-3.5 2.5c1.73 1.852 2.896 1.686 3.5-.5.667 1.667.667 3.333 0 5l-1-2c-3 1-5 3-6 6a4.457 4.457 0 0 0-1.5-2c-.177 2.578-1.343 2.578-3.5 0a4.934 4.934 0 0 0-.5 3c2.987.758 5.987 1.591 9 2.5-1.801.317-2.134.984-1 2-2.276 1.03-2.943 2.53-2 4.5a18.924 18.924 0 0 1 5-3c.064.865.397 1.865 1 3 2.278.715 3.611 1.882 4 3.5a7.293 7.293 0 0 0-3 2l2 5-1 .5a74.335 74.335 0 0 0-8-6.5c-1.566-.765-2.899-.598-4 .5-10.545-1.645-18.045 2.355-22.5 12a50.464 50.464 0 0 0-.5 10 18.155 18.155 0 0 1-2 5.5c-.667.667-1.333.667-2 0 1.017-1.049 1.184-2.216.5-3.5-1.512 4.459-4.012 5.459-7.5 3-2.479 1.946-5.146 3.446-8 4.5 1.665 1.84 3.665 2.507 6 2-1.291-3.025-.624-3.359 2-1-.809 3.033-2.476 3.866-5 2.5-1.147.318-1.981.984-2.5 2-2.766-3.277-5.933-5.943-9.5-8a32.324 32.324 0 0 1-6-4.5c-2.906-1.318-5.906-1.652-9-1a395.98 395.98 0 0 0-19 13.5c-.709-.904-1.709-1.237-3-1 .701-4.319-.466-7.986-3.5-11-3.366-1.495-6.532-1.162-9.5 1-1.104-1.131-.771-1.965 1-2.5-.566-.995-1.233-1.828-2-2.5a37.736 37.736 0 0 0 6.5-5c1.533.444 3.033.777 4.5 1l1-2c1.165.991 2.332 1.991 3.5 3 6.072-2.964 6.405-5.964 1-9a25.254 25.254 0 0 1-6 3c-1.533-1.195-3.033-1.195-4.5 0-.148-2.861-.815-5.861-2-9 .168-1.671.835-3.004 2-4-1.581 10.793 2.086 13.459 11 8a76.332 76.332 0 0 0 8 6.5c3.802 2.828 7.802 3.161 12 1a247.646 247.646 0 0 0 27.5-25.5c5.709-7.338 5.875-14.671.5-22 4.718-5.542 3.552-9.542-3.5-12-2.183.022-3.683 1.022-4.5 3a1076.763 1076.763 0 0 1-39-39c5.136.301 8.302 2.967 9.5 8l6.5 6.5c2.547.067 4.714.901 6.5 2.5.569-3.861 1.402-3.861 2.5 0 1.196-.346 1.196-.846 0-1.5a109.306 109.306 0 0 0 5.5-5.5c.626 2.491 1.459 2.491 2.5 0l1 1c-1.09 1.109-1.09 2.109 0 3a25.866 25.866 0 0 1 3-5 19.953 19.953 0 0 0 4.5 3 660.832 660.832 0 0 0 5-3c1.316 2.528 2.483 2.528 3.5 0 1.598.985 3.265 1.151 5 .5-.628-2.37-.961-4.703-1-7 2.743-2.215 3.743-1.882 3 1a6.201 6.201 0 0 0 2 3.5c1.211-.774 1.211-1.607 0-2.5a4.934 4.934 0 0 1 3-.5c.087-3.098-.413-3.432-1.5-1-.652-2.223-2.152-3.39-4.5-3.5 1.597-2.644 3.431-2.477 5.5.5 2.547-.973 4.047-2.807 4.5-5.5-2.186-.604-2.352-1.77-.5-3.5 1.044 1.123 1.71 2.456 2 4 1.617-1.036 1.784-2.203.5-3.5 4.044-2.705 3.877-4.871-.5-6.5-1.465.83-2.965.996-4.5.5 1.177-2.158.51-3.658-2-4.5a22.486 22.486 0 0 1-5.5 1c-.866-2.396-.366-3.063 1.5-2 1.041-2.491 1.874-2.491 2.5 0a9.454 9.454 0 0 1 1.5-2.5h-10c.388-1.808.388-3.475 0-5l-2-1c2.417-1.144 3.084-2.81 2-5l4-1a220.832 220.832 0 0 1-20.5-1.5l-52 2a632.785 632.785 0 0 1-12.5-2 1243.77 1243.77 0 0 1 86-.5c3.365.505 6.365 1.672 9 3.5Z" style="fill:#3a8ac5;fill-rule:evenodd"/><path d="M55.013 1.014c4.065.693 8.232 1.36 12.5 2l52-2a220.832 220.832 0 0 0 20.5 1.5l-4 1c1.084 2.19.417 3.856-2 5l2 1c.388 1.525.388 3.192 0 5h10a9.454 9.454 0 0 0-1.5 2.5c-.626-2.491-1.459-2.491-2.5 0-1.866-1.063-2.366-.396-1.5 2a22.486 22.486 0 0 0 5.5-1c2.51.842 3.177 2.342 2 4.5 1.535.496 3.035.33 4.5-.5 4.377 1.629 4.544 3.795.5 6.5 1.284 1.297 1.117 2.464-.5 3.5-.29-1.544-.956-2.877-2-4-1.852 1.73-1.686 2.896.5 3.5-.453 2.693-1.953 4.527-4.5 5.5-2.069-2.977-3.903-3.144-5.5-.5 2.348.11 3.848 1.277 4.5 3.5 1.087-2.432 1.587-2.098 1.5 1a4.934 4.934 0 0 0-3 .5c1.211.893 1.211 1.726 0 2.5a6.201 6.201 0 0 1-2-3.5c.743-2.882-.257-3.215-3-1 .039 2.297.372 4.63 1 7-1.735.651-3.402.485-5-.5-1.017 2.528-2.184 2.528-3.5 0a660.832 660.832 0 0 1-5 3 19.953 19.953 0 0 1-4.5-3 25.866 25.866 0 0 0-3 5c-1.09-.891-1.09-1.891 0-3l-1-1c-1.041 2.491-1.874 2.491-2.5 0a109.306 109.306 0 0 1-5.5 5.5c1.196.654 1.196 1.154 0 1.5-1.098-3.861-1.931-3.861-2.5 0-1.786-1.599-3.953-2.433-6.5-2.5l-6.5-6.5c-1.198-5.033-4.364-7.699-9.5-8a67.952 67.952 0 0 0-14-9.5c-3.464-.817-6.798-.483-10 1l-29.5 27.5c-2.243 3.631-3.077 7.631-2.5 12-.597.235-.93.735-1 1.5 1.487 2.411 2.321 4.911 2.5 7.5l-1-2c-1.243 2.333-2.909 3-5 2l-1 2c-1.011-.837-2.178-1.17-3.5-1 .406 1.609.406 2.943 0 4-6.125-4.811-8.125-3.811-6 3-.318 1.147-.984 1.981-2 2.5 1.134 1.016.801 1.683-1 2a20.532 20.532 0 0 0 2.5 4.5c.359-3.044 1.025-3.378 2-1a8.905 8.905 0 0 1 3-4 26.035 26.035 0 0 0 7.5 4.5c-1.561.318-2.728 1.151-3.5 2.5-2.179.021-4.345-.479-6.5-1.5-.965 2.474-1.132 4.974-.5 7.5a23.577 23.577 0 0 1-3.5-1 27.437 27.437 0 0 0-1.5-8l-1.5 1.5c.837 1.011 1.17 2.178 1 3.5-3.949.193-3.949.693 0 1.5-1.333.667-1.333 1.333 0 2-1.801.317-2.134.984-1 2-1.5 2.167-2.667 2-3.5-.5-2.368 2.184-3.035 4.851-2 8 1.487-.753 1.654-1.586.5-2.5a6.978 6.978 0 0 0 3.5-2.5c2.248 1.79 4.081 3.29 5.5 4.5l-.5 1.5c-1.667-1-3-2.333-4-4-1.113 1.26-1.28 2.427-.5 3.5a8.192 8.192 0 0 0-4 2.5c-.667 18.829-1.333 37.496-2 56-.167-38.335 0-76.668.5-115a27.538 27.538 0 0 1 5-11c5.072-4.53 9.239-9.197 12.5-14a761.422 761.422 0 0 1 23-23.5 32.747 32.747 0 0 1 12-5.5Z" style="fill:#3e8dc8;fill-rule:evenodd"/><path d="M460.013 40.014c.543-.06.876-.393 1-1-3.536-4.855-8.37-7.521-14.5-8-7.81.326-13.31 3.993-16.5 11-4.883.691-9.716 1.357-14.5 2 .053-2.288.386-4.621 1-7 .5-1.833 1.667-3 3.5-3.5-1.227-1.587-.894-2.921 1-4a2.428 2.428 0 0 0-2-.5c11.842-11.958 25.842-15.124 42-9.5 16.11 7.391 20.61 19.225 13.5 35.5a36.248 36.248 0 0 1-9.5 8c14.995 7.471 19.495 19.137 13.5 35-7.239 11.382-17.739 17.049-31.5 17-9.506-.336-18.173-3.169-26-8.5-6.137-5.443-9.137-12.276-9-20.5h18c.495 7.434 4.495 11.6 12 12.5 7.574 1.651 14.074-.183 19.5-5.5 4.11-10.373.943-17.207-9.5-20.5a98.432 98.432 0 0 0-14-.5v-15c6.696.651 13.029-.515 19-3.5 3.841-3.881 4.841-8.381 3-13.5Z" style="fill:#2e77b7;fill-rule:evenodd"/><path d="M132.013 85.014a5999.972 5999.972 0 0 0-8-9c.817-1.978 2.317-2.978 4.5-3 7.052 2.458 8.218 6.458 3.5 12Z" style="fill:#6bc6e8;fill-rule:evenodd"/><path d="M91.013 60.014c6.91 5.404 13.41 11.404 19.5 18 2 3.667 2 7.333 0 11l-15.5 15.5c-4.504 3.957-9.504 4.957-15 3a469.033 469.033 0 0 1-18-18.5 594.556 594.556 0 0 0 29-29Z" style="fill:#3c8cc7;fill-rule:evenodd"/><path d="M361.013 17.014c15.324-2.29 27.491 2.71 36.5 15 5.123 13.74 1.29 24.073-11.5 31 14.445 5.556 19.945 15.889 16.5 31-4.078 10.409-11.578 16.909-22.5 19.5-12.775 2.76-24.775.76-36-6-6.718-5.602-10.051-12.769-10-21.5h18c.39 7.558 4.39 11.724 12 12.5 11.772 2.792 19.105-1.542 22-13-.79-6.788-4.456-11.122-11-13a112.97 112.97 0 0 0-15-.5v-15c6.696.651 13.029-.515 19-3.5 4.49-4.789 4.99-9.955 1.5-15.5-6.888-5.606-14.388-6.44-22.5-2.5-3.392 2.285-5.059 5.452-5 9.5h-18c2.125-15.457 10.792-24.79 26-28Z" style="fill:#2f79b9;fill-rule:evenodd"/><path d="M20.013 30.014c-3.261 4.803-7.428 9.47-12.5 14a27.538 27.538 0 0 0-5 11c-.5 38.332-.667 76.665-.5 115 .325 7.519-.008 14.852-1 22a3115.337 3115.337 0 0 1-.5-136c.697-4.428 2.363-8.428 5-12a284.889 284.889 0 0 1 14.5-14Z" style="fill:#2c7ec0;fill-rule:evenodd"/><path d="M29.013 68.014a19.51 19.51 0 0 0 3.5 7 802.492 802.492 0 0 1 41.5 41c0 .667-.333 1-1 1-1.165.996-1.832 2.329-2 4 1.185 3.139 1.852 6.139 2 9 1.467-1.195 2.967-1.195 4.5 0a25.254 25.254 0 0 0 6-3c5.405 3.036 5.072 6.036-1 9a604.676 604.676 0 0 0-3.5-3l-1 2a35.193 35.193 0 0 1-4.5-1 37.736 37.736 0 0 1-6.5 5c-4.841 8.185-10.841 15.518-18 22-1.994 4.185-4.994 7.351-9 9.5l1 1c-5.035 4.367-9.369 8.701-13 13 2.186.604 2.352 1.77.5 3.5l-1-2a724.36 724.36 0 0 0-7 11 29.517 29.517 0 0 1-4.5 2.5c-.561 1.676-1.561 3.009-3 4 2.667.667 2.667 1.333 0 2 .671.986.671 2.153 0 3.5-3.781-2.875-6.614-6.542-8.5-11-.69-1.238-1.19-1.238-1.5 0-1.238-1.714-1.905-3.714-2-6 .992-7.148 1.325-14.481 1-22 .667-18.504 1.333-37.171 2-56a8.192 8.192 0 0 1 4-2.5c-.78-1.073-.613-2.24.5-3.5 1 1.667 2.333 3 4 4l.5-1.5a218.825 218.825 0 0 0-5.5-4.5 6.978 6.978 0 0 1-3.5 2.5c1.154.914.987 1.747-.5 2.5-1.035-3.149-.368-5.816 2-8 .833 2.5 2 2.667 3.5.5-1.134-1.016-.801-1.683 1-2-1.333-.667-1.333-1.333 0-2-3.949-.807-3.949-1.307 0-1.5.17-1.322-.163-2.489-1-3.5l1.5-1.5a27.437 27.437 0 0 1 1.5 8c1.198.44 2.365.773 3.5 1-.632-2.526-.465-5.026.5-7.5 2.155 1.021 4.321 1.521 6.5 1.5.772-1.349 1.939-2.182 3.5-2.5a26.035 26.035 0 0 1-7.5-4.5 8.905 8.905 0 0 0-3 4c-.975-2.378-1.641-2.044-2 1a20.532 20.532 0 0 1-2.5-4.5c1.801-.317 2.134-.984 1-2 1.016-.519 1.682-1.353 2-2.5-2.125-6.811-.125-7.811 6-3 .406-1.057.406-2.391 0-4 1.322-.17 2.489.163 3.5 1l1-2c2.091 1 3.757.333 5-2l1 2c-.179-2.589-1.013-5.089-2.5-7.5.07-.765.403-1.265 1-1.5Z" style="fill:#3b8bc6;fill-rule:evenodd"/><path d="M169.013 118.014c10.747 3.949 14.913 11.616 12.5 23-5.412 11.903-14.246 15.403-26.5 10.5-4.094-3.045-7.094-6.878-9-11.5-.165-3.35.002-6.683.5-10 4.455-9.645 11.955-13.645 22.5-12Z" style="fill:#e17165;fill-rule:evenodd"/><path d="M74.013 116.014c3.982 2.317 7.315 5.317 10 9-8.914 5.459-12.581 2.793-11-8 .667 0 1-.333 1-1Z" style="fill:#6bc5e9;fill-rule:evenodd"/><path d="M129.013 127.014c8.987-.835 11.32 2.665 7 10.5-5.477 2.595-8.811.928-10-5 .363-2.192 1.363-4.026 3-5.5Z" style="fill:#e8705d;fill-rule:evenodd"/><path d="M198.013 71.014c.167 40.001 0 80.001-.5 120-.827 4.323-2.327 8.323-4.5 12-.543-.06-.876-.393-1-1 3.194-5.91 4.694-12.243 4.5-19 .167-37.502.667-74.836 1.5-112Z" style="fill:#1568b3;fill-rule:evenodd;isolation:isolate;opacity:.855"/><path d="M380.013 144.014c9.658-1.507 13.825 2.493 12.5 12-3.392 5.967-8.226 7.467-14.5 4.5-5.756-6.367-5.089-11.867 2-16.5Z" style="fill:#347abb;fill-rule:evenodd"/><path d="M403.013 170.014a462.903 462.903 0 0 1 43-1c.318 4.532-.015 8.866-1 13v-12h-42Z" style="fill:#73a3cc;fill-rule:evenodd;isolation:isolate;opacity:.447"/><path d="M498.013 170.014h-42v11c-.983-3.798-1.317-7.798-1-12 14.51-.329 28.843.004 43 1Z" style="fill:#6ea0ca;fill-rule:evenodd;isolation:isolate;opacity:.452"/><path d="M366.013 173.014c-1.238-.31-1.238-.81 0-1.5a49.226 49.226 0 0 0-14 0 722.854 722.854 0 0 0-17.5 18.5c-.399-.228-.565-.562-.5-1a461.668 461.668 0 0 1 17-19.5 90.455 90.455 0 0 1 19 0 19.552 19.552 0 0 1-4 3.5Z" style="fill:#3066b2;fill-rule:evenodd"/><path d="M403.013 170.014h42v12a35.061 35.061 0 0 1-6 8c-1.025-.397-1.192-1.063-.5-2 5.053-4.505 6.886-10.171 5.5-17h-40v9c8.184-.326 16.184.008 24 1a163.67 163.67 0 0 1-25 1v-12Z" style="fill:#4268b4;fill-rule:evenodd"/><path d="M118.013 147.014a767.187 767.187 0 0 1 22.5 24 20.093 20.093 0 0 1 1.5 6 10.098 10.098 0 0 1-1.5 6 108.148 108.148 0 0 1-16.5 18.5 1664.567 1664.567 0 0 1-38 31.5c-.283-.716-.616-1.549-1-2.5l2-3c-1.011-2.264-2.678-4.431-5-6.5 1.409-.154 3.076-.321 5-.5a15.256 15.256 0 0 1-1.5-4.5c-.149 2.779-.983 3.279-2.5 1.5l1-1c-1.238.077-2.238-.089-3-.5a9.86 9.86 0 0 1 6-1v4a4.934 4.934 0 0 0 3-.5c-.958-1.147-.625-2.147 1-3-2.452-1.806-2.119-3.306 1-4.5a278.205 278.205 0 0 1-19-21 374.049 374.049 0 0 1 23 23 166.776 166.776 0 0 0 19.5-18c3.481-4.931 3.148-9.597-1-14a120.85 120.85 0 0 0-19.5-17.5 32.462 32.462 0 0 0-8-.5c.989-2.885 1.156-5.885.5-9-2.561 2.245-3.228 4.911-2 8l-2.5-2.5c.951-.718 1.117-1.551.5-2.5-1.129 1.641-2.629 2.641-4.5 3 1.333-2 3-3.667 5-5a395.98 395.98 0 0 1 19-13.5c3.094-.652 6.094-.318 9 1a32.324 32.324 0 0 0 6 4.5Z" style="fill:#63c0e7;fill-rule:evenodd"/><path d="M559.013 190.014c-.983 3.798-1.317 7.798-1 12a361.608 361.608 0 0 0-38 1c1.623 13.115 8.623 17.282 21 12.5a14.972 14.972 0 0 0 3-3.5 49.87 49.87 0 0 1 14-1c-1.07 6.919-4.736 12.085-11 15.5-14.857 6.096-27.69 3.263-38.5-8.5-4.757-10.268-5.757-20.935-3-32 6.254-14.048 17.088-20.214 32.5-18.5 12.353 2.519 19.353 10.019 21 22.5Zm-31-11c9.807-1.445 15.807 2.555 18 12a122.079 122.079 0 0 1-27 .5c.953-5.773 3.953-9.939 9-12.5Z" style="fill:#357dbc;fill-rule:evenodd"/><path d="M498.013 170.014c.317 4.202-.017 8.202-1 12v-11h-40v9c8.184-.326 16.184.008 24 1h-25v-11h42Z" style="fill:#0351a8;fill-rule:evenodd"/><path d="M456.013 181.014h25c.172.992-.162 1.658-1 2l-24-2Z" style="fill:#c7d6e3;fill-rule:evenodd;isolation:isolate;opacity:.057"/><path d="M87.013 163.014a32.462 32.462 0 0 1 8 .5 120.85 120.85 0 0 1 19.5 17.5c4.148 4.403 4.481 9.069 1 14a166.776 166.776 0 0 1-19.5 18 374.049 374.049 0 0 0-23-23 110.358 110.358 0 0 1-8-9.5 518.809 518.809 0 0 1 22-17.5Z" style="fill:#2c79b3;fill-rule:evenodd"/><path d="M316.013 146.014h14c-.167 15.67 0 31.337.5 47 .66-1.824 1.827-3.157 3.5-4-.065.438.101.772.5 1a722.854 722.854 0 0 1 17.5-18.5 49.226 49.226 0 0 1 14 0c-1.238.69-1.238 1.19 0 1.5a341.794 341.794 0 0 0-20 24c-.737-1.882-1.904-2.548-3.5-2a4109.765 4109.765 0 0 1 23.5 30 43.233 43.233 0 0 1-16 .5c-5.808-8.687-11.808-16.521-18-23.5l-2-1c-.993 8.15-1.326 16.483-1 25h-13v-80Z" style="fill:#317dbc;fill-rule:evenodd"/><path d="M150.013 4.014a858.478 858.478 0 0 1 43.5 42c3.853 7.862 5.353 16.196 4.5 25a6237.666 6237.666 0 0 0-1.5 112c.194 6.757-1.306 13.09-4.5 19 .124.607.457.94 1 1-.333 1-1 1.667-2 2-11.441 9.923-22.775 20.757-34 32.5.228.399.562.565 1 .5-1 1.667-2.333 3-4 4 .482-3.734-.851-6.567-4-8.5 1.167-.5 2-1.333 2.5-2.5a4.457 4.457 0 0 0 1.5 2c1.612-1.058 2.445-2.392 2.5-4-1.395 1.315-2.395.981-3-1-2 1.333-3.667 3-5 5-.442-2.179-1.442-2.845-3-2-.684-1.284-.517-2.451.5-3.5-4.131-2.448-3.965-4.615.5-6.5 1.487.753 1.654 1.586.5 2.5l2 1c-1.905.826-2.239 1.993-1 3.5 4.389-1.106 5.389-3.273 3-6.5a18.453 18.453 0 0 1 6-.5c.17 1.322-.163 2.489-1 3.5l1.5 1.5c.463-3.668 2.297-5.002 5.5-4 1.362-1.512 1.696-3.012 1-4.5 1.456-.423 1.956-1.256 1.5-2.5a11.333 11.333 0 0 1-3.5 1.5c1.104 1.131.771 1.965-1 2.5-1.89-.369-2.724-1.369-2.5-3l1 1c.5-1.167 1.333-2 2.5-2.5-.862-2.734-1.695-2.901-2.5-.5a22.755 22.755 0 0 0-4-5l-1 1c-.015-2.637.485-4.804 1.5-6.5-.949-.617-1.782-.451-2.5.5-3.394-5.563-5.727-5.23-7 1-.318-1.561-1.151-2.728-2.5-3.5-.246-1.06-.246-2.227 0-3.5-3.352-1.405-3.518-2.739-.5-4a59.176 59.176 0 0 1 1.5-7.5c-.924-1.811-1.757-1.645-2.5.5a4.457 4.457 0 0 1-1.5-2c1.942-2.648 2.276-5.315 1-8a20.093 20.093 0 0 0-1.5-6 767.187 767.187 0 0 0-22.5-24c3.567 2.057 6.734 4.723 9.5 8 .519-1.016 1.353-1.682 2.5-2 2.524 1.366 4.191.533 5-2.5-2.624-2.359-3.291-2.025-2 1-2.335.507-4.335-.16-6-2 2.854-1.054 5.521-2.554 8-4.5 3.488 2.459 5.988 1.459 7.5-3 .684 1.284.517 2.451-.5 3.5.667.667 1.333.667 2 0a18.155 18.155 0 0 0 2-5.5c1.906 4.622 4.906 8.455 9 11.5 12.254 4.903 21.088 1.403 26.5-10.5 2.413-11.384-1.753-19.051-12.5-23 1.101-1.098 2.434-1.265 4-.5a74.335 74.335 0 0 1 8 6.5l1-.5-2-5a7.293 7.293 0 0 1 3-2c-.389-1.618-1.722-2.785-4-3.5-.603-1.135-.936-2.135-1-3a18.924 18.924 0 0 0-5 3c-.943-1.97-.276-3.47 2-4.5-1.134-1.016-.801-1.683 1-2a209.959 209.959 0 0 0-9-2.5 4.934 4.934 0 0 1 .5-3c2.157 2.578 3.323 2.578 3.5 0a4.457 4.457 0 0 1 1.5 2c1-3 3-5 6-6l1 2c.667-1.667.667-3.333 0-5-.604 2.186-1.77 2.352-3.5.5a6.978 6.978 0 0 0 3.5-2.5l1 1a21.438 21.438 0 0 1 0-5 4.457 4.457 0 0 0 1.5 2c.497-5.205 1.997-5.205 4.5 0a14.828 14.828 0 0 1 6.5-2c-.406-1.609-.406-2.943 0-4a176.05 176.05 0 0 1 2.5 8c.667-12 .667-24 0-36a32.473 32.473 0 0 0-4-10c-14.809-14.632-28.642-28.632-41.5-42Z" style="fill:#3382bd;fill-rule:evenodd"/><path d="M316.013 146.014v80h13c-.326-8.517.007-16.85 1-25v27h-15a1681.8 1681.8 0 0 1 1-82Z" style="fill:#095eae;fill-rule:evenodd;isolation:isolate;opacity:.859"/><path d="M272.013 145.014c9.443-.708 18.11 1.458 26 6.5 4.569 4.536 6.902 10.036 7 16.5a366.23 366.23 0 0 0-13.5 1 3.943 3.943 0 0 1-2-1c-1.644-6.258-5.81-9.258-12.5-9-11.046 1.263-14.046 6.763-9 16.5a126.862 126.862 0 0 0 24 8c14.597 7.791 18.431 19.291 11.5 34.5-10.05 10.55-22.217 14.05-36.5 10.5-12.032-3.03-18.699-10.697-20-23a48.73 48.73 0 0 1 17 .5c3.946 8.934 10.612 11.767 20 8.5 5.595-2.354 7.428-6.521 5.5-12.5a4.457 4.457 0 0 0-1.5-2c-9.281-3.493-18.614-6.993-28-10.5-12.187-8.931-14.687-20.098-7.5-33.5 5.07-6.395 11.57-10.061 19.5-11Z" style="fill:#387fbe;fill-rule:evenodd"/><path d="M87.013 163.014a518.809 518.809 0 0 0-22 17.5 110.358 110.358 0 0 0 8 9.5 278.205 278.205 0 0 0 19 21c-3.119 1.194-3.452 2.694-1 4.5-1.625.853-1.958 1.853-1 3a4.934 4.934 0 0 1-3 .5v-4a9.86 9.86 0 0 0-6 1c.762.411 1.762.577 3 .5l-1 1c1.517 1.779 2.351 1.279 2.5-1.5a15.256 15.256 0 0 0 1.5 4.5c-1.924.179-3.591.346-5 .5 2.322 2.069 3.989 4.236 5 6.5l-2 3c.384.951.717 1.784 1 2.5-6.388 5.12-13.055 5.287-20 .5a248.603 248.603 0 0 1-26.5-26.5c-2.33-5.689-1.664-11.023 2-16a328.609 328.609 0 0 1 37.5-31c1.871-.359 3.371-1.359 4.5-3 .617.949.451 1.782-.5 2.5l2.5 2.5c-1.228-3.089-.561-5.755 2-8 .656 3.115.489 6.115-.5 9Z" style="fill:#5cb9e4;fill-rule:evenodd"/><path d="M559.013 190.014a61.26 61.26 0 0 1 1 13h-40a361.608 361.608 0 0 1 38-1c-.317-4.202.017-8.202 1-12Z" style="fill:#3362b1;fill-rule:evenodd;isolation:isolate;opacity:.859"/><path d="M392.013 170.014h-15v58a871.155 871.155 0 0 1-1-59c5.526-.321 10.86.012 16 1Z" style="fill:#518fc4;fill-rule:evenodd;isolation:isolate;opacity:.557"/><path d="M392.013 170.014v58h-15v-58h15Z" style="fill:#186ab3;fill-rule:evenodd;isolation:isolate;opacity:.718"/><path d="M378.013 171.014h12v55h-12v-55Z" style="fill:#327fbe;fill-rule:evenodd"/><path d="M497.013 182.014a1137.42 1137.42 0 0 1-25 33.5c.228.399.562.565 1 .5-.418.722-1.084 1.222-2 1.5 8.994.5 17.994.666 27 .5v8h-42c.284-3.277-.049-6.443-1-9.5a438.133 438.133 0 0 1 12.5-15.5c.692-.937.525-1.603-.5-2a9041.832 9041.832 0 0 0 13-16c.838-.342 1.172-1.008 1-2-7.816-.992-15.816-1.326-24-1v-9h40v11Z" style="fill:#327ebc;fill-rule:evenodd"/><path d="M439.013 190.014a1260.013 1260.013 0 0 1-20 25.5 2.428 2.428 0 0 0 2 .5c-.418.722-1.084 1.222-2 1.5 8.66.5 17.327.666 26 .5a40.914 40.914 0 0 1-.5 9 457.546 457.546 0 0 0-42.5-1 33.724 33.724 0 0 1 1.5-11c1.491-1.504 3.324-2.337 5.5-2.5a4.457 4.457 0 0 1-2-1.5 14.972 14.972 0 0 1 3-3.5 2.428 2.428 0 0 0-2-.5 369.875 369.875 0 0 0 20-26c-7.816-.992-15.816-1.326-24-1v-9h40c1.386 6.829-.447 12.495-5.5 17-.692.937-.525 1.603.5 2Z" style="fill:#317dbc;fill-rule:evenodd"/><path d="M191.013 205.014a770.986 770.986 0 0 1-33 33c-.438.065-.772-.101-1-.5 11.225-11.743 22.559-22.577 34-32.5Z" style="fill:#1a64b1;fill-rule:evenodd;isolation:isolate;opacity:.788"/><path d="M13.013 209.014c11.721 12.388 23.387 24.054 35 35a10.134 10.134 0 0 1-4-1.5l-36.5-36.5c-2.157-2.317-3.657-4.984-4.5-8 .31-1.238.81-1.238 1.5 0 1.886 4.458 4.719 8.125 8.5 11Z" style="fill:#1a5ea8;fill-rule:evenodd;isolation:isolate;opacity:.831"/><path d="M467.013 199.014c1.025.397 1.192 1.063.5 2a438.133 438.133 0 0 0-12.5 15.5c.951 3.057 1.284 6.223 1 9.5h42v-8c-9.006.166-18.006 0-27-.5.916-.278 1.582-.778 2-1.5h27v12h-46a84.902 84.902 0 0 1 .5-13c4-5.495 8.166-10.829 12.5-16Z" style="fill:#1769b2;fill-rule:evenodd"/><path d="M346.013 197.014a985.776 985.776 0 0 0 24 30.5 100.2 100.2 0 0 1-20 0 220.809 220.809 0 0 1-18-25.5c6.192 6.979 12.192 14.813 18 23.5a43.233 43.233 0 0 0 16-.5 4109.765 4109.765 0 0 0-23.5-30c1.596-.548 2.763.118 3.5 2Z" style="fill:#326bb4;fill-rule:evenodd;isolation:isolate;opacity:.793"/><path d="M408.013 207.014a2.428 2.428 0 0 1 2 .5 14.972 14.972 0 0 0-3 3.5 4.457 4.457 0 0 0 2 1.5c-2.176.163-4.009.996-5.5 2.5a33.724 33.724 0 0 0-1.5 11c14.245-.324 28.412.01 42.5 1 .498-2.982.665-5.982.5-9-8.673.166-17.34 0-26-.5.916-.278 1.582-.778 2-1.5h26v12h-46a84.902 84.902 0 0 1 .5-13 76.332 76.332 0 0 1 6.5-8Z" style="fill:#1d68b1;fill-rule:evenodd;isolation:isolate;opacity:.812"/><path d="M67.013 139.014c.767.672 1.434 1.505 2 2.5-1.771.535-2.104 1.369-1 2.5 2.968-2.162 6.134-2.495 9.5-1 3.034 3.014 4.201 6.681 3.5 11 1.291-.237 2.291.096 3 1-2 1.333-3.667 3-5 5a328.609 328.609 0 0 0-37.5 31c-3.664 4.977-4.33 10.311-2 16a248.603 248.603 0 0 0 26.5 26.5c6.945 4.787 13.612 4.62 20-.5a1664.567 1664.567 0 0 0 38-31.5 108.148 108.148 0 0 0 16.5-18.5 10.098 10.098 0 0 0 1.5-6c1.276 2.685.942 5.352-1 8a4.457 4.457 0 0 0 1.5 2c.743-2.145 1.576-2.311 2.5-.5a59.176 59.176 0 0 0-1.5 7.5c-3.018 1.261-2.852 2.595.5 4-.246 1.273-.246 2.44 0 3.5 1.349.772 2.182 1.939 2.5 3.5 1.273-6.23 3.606-6.563 7-1 .718-.951 1.551-1.117 2.5-.5-1.015 1.696-1.515 3.863-1.5 6.5l1-1a22.755 22.755 0 0 1 4 5c.805-2.401 1.638-2.234 2.5.5-1.167.5-2 1.333-2.5 2.5l-1-1c-.224 1.631.61 2.631 2.5 3 1.771-.535 2.104-1.369 1-2.5a11.333 11.333 0 0 0 3.5-1.5c.456 1.244-.044 2.077-1.5 2.5.696 1.488.362 2.988-1 4.5-3.203-1.002-5.037.332-5.5 4l-1.5-1.5c.837-1.011 1.17-2.178 1-3.5a18.453 18.453 0 0 0-6 .5c2.389 3.227 1.389 5.394-3 6.5-1.239-1.507-.905-2.674 1-3.5l-2-1c1.154-.914.987-1.747-.5-2.5-4.465 1.885-4.631 4.052-.5 6.5-1.017 1.049-1.184 2.216-.5 3.5 1.558-.845 2.558-.179 3 2 1.333-2 3-3.667 5-5 .605 1.981 1.605 2.315 3 1-.055 1.608-.888 2.942-2.5 4a4.457 4.457 0 0 1-1.5-2c-.5 1.167-1.333 2-2.5 2.5 3.149 1.933 4.482 4.766 4 8.5-4.407 3.304-9.407 5.137-15 5.5a1599.45 1599.45 0 0 1-80 0c-4.114-.115-7.781-1.282-11-3.5-11.613-10.946-23.279-22.612-35-35 .671-1.347.671-2.514 0-3.5 2.667-.667 2.667-1.333 0-2 1.439-.991 2.439-2.324 3-4a29.517 29.517 0 0 0 4.5-2.5 724.36 724.36 0 0 1 7-11l1 2c1.852-1.73 1.686-2.896-.5-3.5 3.631-4.299 7.965-8.633 13-13l-1-1c4.006-2.149 7.006-5.315 9-9.5 7.159-6.482 13.159-13.815 18-22Z" style="fill:#337fba;fill-rule:evenodd"/></svg>